<?xml version="1.0" encoding="utf-8"?>
<!-- Generator: Adobe Illustrator 22.1.0, SVG Export Plug-In . SVG Version: 6.00 Build 0)  -->
<svg version="1.1" id="Capa_1" xmlns="http://www.w3.org/2000/svg" xmlns:xlink="http://www.w3.org/1999/xlink" x="0px" y="0px"
	 viewBox="0 0 77 76" style="enable-background:new 0 0 77 76;" xml:space="preserve">
<style type="text/css">
	.st0{fill:#CCCCCC;}
</style>
<g>
	<path class="st0" d="M66,61.3H11c-2.9,0-5.3-2.4-5.3-5.3V20c0-2.9,2.4-5.3,5.3-5.3h55c2.9,0,5.3,2.4,5.3,5.3v36
		C71.3,59,68.9,61.3,66,61.3z M11,16.8c-1.8,0-3.2,1.4-3.2,3.2v36c0,1.8,1.4,3.2,3.2,3.2h55c1.8,0,3.2-1.4,3.2-3.2V20
		c0-1.8-1.4-3.2-3.2-3.2H11z"/>
	<path class="st0" d="M38.5,43.3c-1.4,0-2.8-0.5-3.9-1.4l-27-23.6c-0.4-0.4-0.5-1.1-0.1-1.5s1.1-0.5,1.5-0.1l27,23.6
		c1.4,1.2,3.6,1.2,5,0l27-23.6c0.4-0.4,1.1-0.3,1.5,0.1s0.3,1.1-0.1,1.5l-27,23.6C41.3,42.8,39.9,43.3,38.5,43.3z"/>
</g>
</svg>
