<?xml version="1.0" encoding="utf-8"?>
<!-- Generator: Adobe Illustrator 22.1.0, SVG Export Plug-In . SVG Version: 6.00 Build 0)  -->
<svg version="1.1" id="Capa_1" xmlns="http://www.w3.org/2000/svg" xmlns:xlink="http://www.w3.org/1999/xlink" x="0px" y="0px"
	 viewBox="0 0 342 106" style="enable-background:new 0 0 342 106;" xml:space="preserve">
<g>
	<g id="zoGYq6_1_">
		<g>
			<path d="M4.4,31.1c-1.2,0-2,0-2.9,0c0-9.1,0-18.1,0-27.3c2.2-0.7,3.8-0.4,5.2,2c2.5,4.4,5.4,8.6,8.2,13c-0.9,0.5-1.6,0.9-2.5,1.4
				c-2.6-4-5.1-7.8-8-12.3C4.4,16,4.4,23.5,4.4,31.1z"/>
			<path d="M47.5,20.2c-0.9-0.5-1.6-0.9-2.6-1.5C46.9,15.5,49,12.2,51,9c0.6-0.9,1.2-1.7,1.7-2.7c1.1-2.5,2.8-3.4,5.6-2.5
				c0,8.9,0,18,0,27.3c-0.8,0-1.6,0-2.7,0c0-7.5,0-15,0-22.5c-0.2-0.1-0.4-0.1-0.6-0.2C52.6,12.3,50.1,16.2,47.5,20.2z"/>
			<path d="M244.5,43c-1,0.4-1.7,0.8-2.8,1.3c-4.8-11-9.6-22-14.5-33c0.7-0.6,1.3-1.2,2.2-1.9C234.4,20.6,239.4,31.7,244.5,43z"/>
			<path d="M220.5,9.9c2.3,0.8,2.3,1.9,1.4,3.7c-4.5,9.8-8.8,19.7-13.2,29.6c-0.1,0.2-0.2,0.4-0.4,0.7c-0.8-0.3-1.6-0.6-2.7-0.9
				C210.6,31.9,215.6,20.9,220.5,9.9z"/>
			<path d="M108.3,66.2c-0.6-2.2,0.3-2.9,2.2-3.5c7.9-2.4,12.8-8.9,13.4-17.6c0.1-1,0.1-2.1,0.2-3.3c0.9-0.1,1.7-0.1,2.5-0.2
				C128,52.5,121.4,64.1,108.3,66.2z"/>
			<path d="M126.8,31.2c-1-0.1-1.7-0.1-2.6-0.1c0-9.1,0-18.2,0-27.4c0.9,0,1.7,0,2.6,0C126.8,12.9,126.8,21.9,126.8,31.2z"/>
			<path d="M81.2,41.8c0.9,0,1.6,0,2.6,0c0,10.1,3.8,17.8,13.9,21.2c0.1,0.3,0.1,0.5,0.1,0.6c-0.1,0.7-0.2,1.3-0.3,2
				C87.6,64,80,53.5,81.2,41.8z"/>
			<path d="M296.6,45.9c2.2-1.5,3.5-0.6,4.9,1c5.6,6.3,11.4,12.4,17.3,18.8c-2.1,0.5-3.7,0.5-5.2-1.2
				C308.2,58.2,302.4,52.1,296.6,45.9z"/>
			<path d="M239.9,47.2c0,0.9,0,1.6,0,2.5c-9.7,0-19.3,0-29.1,0c-0.1-0.7-0.1-1.5-0.2-2.5C220.3,47.2,230,47.2,239.9,47.2z"/>
			<path d="M4.1,65.8c-0.9,0-1.7,0-2.7,0c0-8,0-15.9,0-24c0.9-0.1,1.7-0.1,2.7-0.2C4.1,49.7,4.1,57.6,4.1,65.8z"/>
			<path d="M83.8,31.1c-1,0-1.7,0-2.6,0c0-9.1,0-18.2,0-27.4c0.9,0,1.7,0,2.6,0C83.8,12.9,83.8,21.9,83.8,31.1z"/>
			<path d="M273.7,34.4c-0.9,0-1.7,0-2.7,0c0-7.9,0-15.6,0-23.5c0.9,0,1.7,0,2.7,0C273.7,18.7,273.7,26.5,273.7,34.4z"/>
			<path d="M339.3,65.8c-0.9,0-1.7,0-2.6,0c0-8.9,0-17.6,0-26.5c0.8,0,1.6,0,2.6,0C339.3,48.1,339.3,56.9,339.3,65.8z"/>
			<path d="M336.8,3.7c1,0,1.7,0,2.6,0c0,8.3,0,16.5,0,24.8c-0.9,0-1.6,0-2.6,0C336.8,20.2,336.8,12,336.8,3.7z"/>
			<path d="M170.1,65.8c-1,0-1.8,0-2.7,0c0-6.9,0-13.7,0-20.6c0.9-0.1,1.7-0.1,2.7-0.2C170.1,51.9,170.1,58.8,170.1,65.8z"/>
			<path d="M273.6,65.8c-0.9,0-1.7,0-2.6,0c0-6.9,0-13.7,0-20.6c0.8-0.1,1.6-0.1,2.6-0.2C273.6,52,273.6,58.8,273.6,65.8z"/>
			<path d="M58.4,41.9c0,8,0,15.9,0,23.9c-0.9,0-1.7,0-2.7,0c0-8,0-15.9,0-23.9C56.5,41.9,57.3,41.9,58.4,41.9z"/>
			<path d="M66.6,91.1c0,4,0,7.5,0,11.1c0,0.4-0.5,0.9-0.8,1.3c-0.2-0.5-0.7-0.9-0.7-1.4c-0.1-2.6,0-5.1,0-8.4
				c-1.7,2.3-3,4.1-4.6,6.1c-1.5-2-2.8-3.8-4.1-5.5c-0.2,0-0.3,0-0.5,0.1c0,2.4,0,4.9,0,7.3c0,0.6-0.4,1.2-0.7,1.9
				c-0.3-0.6-0.7-1.2-0.7-1.8c-0.1-3.4,0-6.8,0-10.5c3.9,0.3,3.8,4.3,6.1,5.7C62.8,95.6,62.7,91.6,66.6,91.1z"/>
			<path d="M170.9,103.6c0-4.3,0-8.2,0-12.4c3.5,0.2,7.2-1.1,9.6,2.5c1.5,2.3,1.5,4.8,0,7.1C178.2,104.5,174.5,103.4,170.9,103.6z
				 M172.7,92.9c0,3,0,5.9,0,8.8c2.6,0.2,5.1,0.5,6.6-2.1c0.9-1.7,0.9-3.5-0.3-5.1C177.3,92.3,175,92.7,172.7,92.9z"/>
			<path d="M301.7,38.3c6-1.2,10.1-4.3,12-10.3c1,0.2,1.8,0.3,2.6,0.5c-0.7,6.5-6.8,11.9-14.4,12.6
				C301.9,40.3,301.8,39.4,301.7,38.3z"/>
			<path d="M316.4,17.5c-1,0.1-1.8,0.3-2.7,0.4c-1.9-5.9-5.8-9.6-11.8-11.1c0-1,0-1.8,0-2.7C308.7,4.7,315.1,10.5,316.4,17.5z"/>
			<path d="M285.9,103.7c-3.8,0-6.3-2.6-6.3-6.5c0.1-3.7,2.6-6.2,6.3-6.2c3.7,0,6.2,2.5,6.3,6.3
				C292.2,101.2,289.7,103.7,285.9,103.7z M281.3,97.4c0,2.8,1.9,4.8,4.6,4.8c2.7,0,4.6-2,4.7-4.8c0-2.9-2-4.9-4.8-4.9
				C283.1,92.6,281.3,94.5,281.3,97.4z"/>
			<path d="M198.6,92.4c-2.2,0.1-4.5,0.2-6.9,0.4c0,1.1,0,2.2,0,3.8c2.2,0,4.4,0,6.6,0c0,0.4,0,0.7,0,1.1c-2.2,0.1-4.4,0.3-6.7,0.4
				c0,1.2,0,2.4,0,3.9c1.8,0,3.7-0.1,5.5,0c0.6,0,1.1,0.5,1.6,0.7c-0.5,0.3-1,0.8-1.5,0.8c-2.4,0.1-4.8,0-7.3,0c0-4.2,0-8,0-12.1
				c2.8,0,5.6,0,8.4,0C198.6,91.8,198.6,92.1,198.6,92.4z"/>
			<path d="M261.3,103.5c0-4.2,0-8.1,0-12.3c3.4,0.2,7-1,9.5,2.3c1.7,2.2,1.7,4.7,0.3,7.1C268.8,104.4,265,103.4,261.3,103.5z
				 M262.9,93c0,3.1,0,5.9,0,8.8c2.6,0,5.1,0.6,6.6-2c1.1-1.7,1.1-3.6-0.2-5.3C267.7,92.3,265.3,92.6,262.9,93z"/>
			<path d="M231.7,98.2c-0.8,0-1.6,0.1-2.4,0c-0.4-0.1-0.7-0.5-1.1-0.8c0.4-0.2,0.8-0.7,1.2-0.7c1.3-0.1,2.5,0,3.8,0
				c0.9,4.3,0.2,6.1-2.7,6.8c-3.6,0.9-6.9-0.7-7.9-3.9c-1.1-3.5,0.4-7.4,3.7-8.2c1.8-0.4,3.8,0.1,5.7,0.4c0.4,0.1,0.6,0.9,0.9,1.4
				c-0.5,0-1.1,0.1-1.5-0.1c-4-1.7-7.6,0.4-7.4,4.5c0.1,2.9,2.5,4.9,5.4,4.5C231.7,101.8,232.2,101,231.7,98.2z"/>
			<path d="M132.9,93.6c-0.6-0.1-1.1-0.3-1.7-0.4c-1.4-0.2-2.9-0.5-4.3-0.5c-0.5,0-1.3,1-1.3,1.5c0,0.5,0.7,1.3,1.3,1.6
				c1.2,0.5,2.5,0.6,3.7,0.9c1.7,0.5,3.1,1.3,3,3.4c-0.1,2.1-1.5,3.1-3.3,3.4c-2.1,0.4-4.3,0.3-5.9-1.3c-0.4-0.4-0.3-1.1-0.5-1.7
				c0.5,0.1,1.1,0.1,1.5,0.4c1.6,1.3,3.4,1.7,5.3,0.8c0.6-0.3,1.2-1.1,1.2-1.7c0-0.6-0.7-1.4-1.2-1.6c-1.2-0.5-2.5-0.6-3.7-0.9
				c-1.6-0.4-3-1.1-3.1-3.1c0-2,1.3-2.9,3.1-3.3c2.4-0.5,4.5-0.3,6.1,1.7C132.9,93.1,132.9,93.3,132.9,93.6z"/>
			<path d="M252.8,103.8c-0.6-0.5-1.4-0.9-1.6-1.5c-0.5-1.3-1.3-1.6-2.6-1.6c-1.1,0.1-2.3-0.2-3.4,0.1c-0.8,0.2-1.5,0.8-2.2,1.4
				c-0.6,0.5-1.1,1-1.6,1.6c-0.2-0.2-0.5-0.4-0.7-0.5c1.7-3.8,3.4-7.7,5.2-11.4c0.1-0.3,2.1-0.2,2.2,0.1c1.8,3.7,3.5,7.5,5.2,11.3
				C253.1,103.4,253,103.6,252.8,103.8z M249.8,99.2c-1-2.2-1.8-4-2.8-6.2c-1,2.3-1.8,4.2-2.6,6.2C246.2,99.2,247.8,99.2,249.8,99.2
				z"/>
			<path d="M254.6,65.6c-2.4,0.8-3.6,0.2-4.5-2c-1.2-3.2-2.8-6.3-4.2-9.6c1-0.5,1.8-0.9,2.9-1.4C250.7,57,252.6,61.2,254.6,65.6z"/>
			<path d="M195.6,65.5c1.9-4.3,3.8-8.5,5.8-13c0.9,0.5,1.8,0.9,2.8,1.4c-1.7,3.8-3.2,7.6-5,11.2c-0.4,0.7-2.1,0.8-3.2,1.1
				C195.8,66,195.7,65.7,195.6,65.5z"/>
			<path d="M277.6,41.4c0-0.9,0.1-1.6,0.1-2.5c4.5,0,8.9,0,13.4,0c0,0.8,0,1.6,0,2.5C286.7,41.4,282.2,41.4,277.6,41.4z"/>
			<path d="M178.9,22.7c0.9,0.6,1.5,1.1,2.3,1.7c-2.6,4.1-5.3,8.2-8,12.4c-0.8-0.7-1.4-1.3-2.1-1.9
				C173.7,30.9,176.2,26.9,178.9,22.7z"/>
			<path d="M142.9,3.8c2.4-0.7,3.7,0,4.8,1.9c1.6,2.8,3.5,5.4,5.3,8.3c-0.8,0.6-1.5,1.1-2.4,1.7C148.1,11.8,145.6,7.9,142.9,3.8z"/>
			<path d="M39.2,27.5c0.9,0.6,1.6,1.2,2.5,1.8c-2.4,3.8-4.8,7.5-7.3,11.4c-0.8-0.7-1.4-1.3-2.2-2C34.5,35,36.8,31.4,39.2,27.5z"/>
			<path d="M156.4,24.5c0.9-0.6,1.6-1,2.5-1.5c2.5,3.9,5,7.8,7.5,11.7c-0.7,0.6-1.4,1.1-2.2,1.8C161.6,32.5,159.1,28.6,156.4,24.5z"
				/>
			<path d="M194.5,4c-2.4,3.8-4.9,7.5-7.4,11.4c-0.9-0.5-1.6-0.9-2.6-1.5c2.1-3.3,4-6.5,6.2-9.5c0.6-0.8,2.2-0.8,3.3-1.2
				C194.2,3.5,194.3,3.7,194.5,4z"/>
			<path d="M18.2,29.2c0.8-0.6,1.5-1.1,2.3-1.8c2.4,3.7,4.7,7.3,7.1,10.9c-0.7,0.6-1.3,1.1-2.2,1.9C23,36.6,20.7,33,18.2,29.2z"/>
			<path d="M291.3,3.7c0,0.9-0.1,1.6-0.1,2.5c-4.5,0-8.9,0-13.4,0c-0.1-0.8-0.2-1.6-0.2-2.5C282.2,3.7,286.7,3.7,291.3,3.7z"/>
			<path d="M208.9,102c2,0,3.7,0,5.5,0c0.4,0,0.7,0.5,1.1,0.8c-0.4,0.3-0.7,0.7-1.1,0.7c-2.2,0.1-4.5,0-7.1,0c0-3.9,0-7.7,0-11.4
				c0-0.3,0.5-0.6,0.8-0.8c0.3,0.4,0.8,0.9,0.8,1.3C208.9,95.6,208.9,98.6,208.9,102z"/>
			<path d="M114,91.1c0.3,0.4,1,0.9,1,1.3c0.1,3.3,0.1,6.6,0,10c0,0.4-0.5,0.8-0.7,1.2c-0.3-0.4-0.8-0.8-0.8-1.3
				c-0.1-3.6,0-7.2,0-10.8C113.6,91.3,113.8,91.2,114,91.1z"/>
			<path d="M224.5,8.7c-0.6-0.8-1.7-1.7-1.7-2.4c0.1-0.8,1.2-1.9,2-2.1c0.5-0.1,1.8,1.1,1.9,1.8c0.1,0.8-0.8,1.7-1.3,2.6
				C225.2,8.6,224.8,8.6,224.5,8.7z"/>
			<path d="M5,36.8c-0.8,0.6-1.7,1.7-2.4,1.6c-0.8-0.1-1.5-1.3-2.2-2c0.7-0.7,1.3-1.8,2-1.9c0.8-0.1,1.7,0.8,2.6,1.3
				C5,36.1,5,36.5,5,36.8z"/>
			<path d="M207.7,49c-0.8,0.5-1.7,1.5-2.5,1.4c-0.7,0-2-1.3-1.9-1.8c0.2-0.9,1.2-2,1.9-2.1c0.7-0.1,1.6,1,2.5,1.5
				C207.7,48.3,207.7,48.7,207.7,49z"/>
			<path d="M340.7,34.3c-0.8,0.6-1.7,1.7-2.4,1.6c-0.8-0.1-1.9-1.2-2.1-2c-0.1-0.6,1.1-1.9,1.8-2c0.8-0.1,1.7,0.9,2.6,1.4
				C340.7,33.6,340.7,34,340.7,34.3z"/>
			<path d="M171,40.4c-0.9,0.5-1.8,1.4-2.6,1.3c-0.7-0.1-1.3-1.2-2-1.9c0.7-0.7,1.4-1.9,2.2-2c0.7-0.1,1.6,1,2.4,1.6
				C171,39.7,171,40.1,171,40.4z"/>
			<path d="M105.4,65.5c-0.8,0.5-1.7,1.5-2.5,1.5c-0.7,0-2-1.3-1.9-1.8c0.1-0.8,1.1-2,1.9-2.1c0.7-0.1,1.6,1,2.5,1.5
				C105.4,64.9,105.4,65.2,105.4,65.5z"/>
			<path d="M298.9,5.9c-0.8,0.5-1.7,1.5-2.4,1.4c-0.7-0.1-2-1.3-1.9-1.9c0.2-0.8,1.2-2,2-2.1c0.7-0.1,1.6,1,2.4,1.6
				C298.9,5.2,298.9,5.6,298.9,5.9z"/>
			<path d="M245.8,46c0.5,0.8,1.5,1.7,1.4,2.5c0,0.7-1.3,1.9-1.8,1.9c-0.8-0.1-2-1.2-2.1-1.9c-0.1-0.7,1-1.6,1.5-2.5
				C245.1,46,245.5,46,245.8,46z"/>
			<path d="M46,24.5c-0.8,0.6-1.6,1.6-2.4,1.6c-0.7,0-2-1.2-2-1.8c0.1-0.8,1.1-2,1.8-2.2c0.7-0.1,1.7,0.8,2.5,1.3
				C46,23.8,46,24.1,46,24.5z"/>
			<path d="M15.7,26.5c-0.6-0.8-1.6-1.7-1.5-2.5c0.1-0.8,1.3-1.7,2.2-1.9c0.5-0.1,1.8,1.2,1.8,1.9c0,0.8-0.9,1.7-1.5,2.5
				C16.3,26.5,16,26.5,15.7,26.5z"/>
			<path d="M272.9,2.9c0.5,0.9,1.6,1.8,1.4,2.5c-0.1,0.8-1.3,1.7-2.2,1.8c-0.5,0.1-1.7-1.3-1.7-2c0-0.8,1-1.6,1.6-2.4
				C272.2,2.9,272.6,2.9,272.9,2.9z"/>
			<path d="M157.4,19.7c-0.8,0.5-1.7,1.5-2.5,1.5c-0.7,0-2-1.2-1.9-1.8c0.1-0.8,1.1-2,1.8-2.1c0.8-0.1,1.7,0.9,2.5,1.5
				C157.4,19.1,157.4,19.4,157.4,19.7z"/>
			<path d="M56.8,38.8c-0.5-0.8-1.5-1.8-1.4-2.5c0.1-0.8,1.3-1.7,2.1-1.8c0.6-0.1,1.8,1.2,1.8,1.9c0,0.8-1,1.6-1.5,2.4
				C57.4,38.9,57.1,38.8,56.8,38.8z"/>
			<path d="M84.8,37c-0.8,0.5-1.8,1.6-2.5,1.4c-0.8-0.1-1.7-1.3-1.9-2.1c-0.1-0.5,1.2-1.7,1.9-1.7c0.8,0,1.6,0.9,2.5,1.4
				C84.8,36.3,84.8,36.6,84.8,37z"/>
			<path d="M318.3,23.6c-0.8,0.5-1.7,1.4-2.5,1.3c-0.7-0.1-1.4-1.2-2-1.9c0.7-0.7,1.4-1.9,2.1-2c0.7-0.1,1.6,1,2.4,1.5
				C318.4,22.9,318.3,23.2,318.3,23.6z"/>
			<path d="M296.4,43.1c-0.9-1.4-2-2.3-1.8-2.9c0.2-0.8,1.3-1.9,2.1-2c1.3-0.2,2.2,0.9,1.8,2.2C298.3,41.2,297.4,41.8,296.4,43.1z"
				/>
			<path d="M30.3,41.1c0.5,0.9,1.4,1.7,1.3,2.5c-0.1,0.7-1.4,2-1.9,1.8c-0.8-0.2-1.9-1.2-2-2c-0.1-0.7,1-1.6,1.6-2.4
				C29.7,41.1,30,41.1,30.3,41.1z"/>
			<path d="M186.2,19.2c-1.4,1-2.3,2.1-2.9,2c-0.8-0.1-1.9-1.2-2-2c-0.1-0.5,1.1-1.9,1.8-1.9C183.8,17.2,184.7,18.2,186.2,19.2z"/>
			<path d="M124.8,38.9c-0.5-0.8-1.5-1.7-1.5-2.5c0-0.7,1.2-1.8,2-1.8c0.7,0,1.9,1.1,2,1.8c0.1,0.8-0.9,1.7-1.4,2.5
				C125.4,38.8,125.1,38.8,124.8,38.9z"/>
			<path d="M274.7,40.2c-0.8,0.5-1.7,1.5-2.5,1.5c-0.7,0-1.9-1.2-1.9-1.9c0-0.7,1.1-2,1.8-2c0.8-0.1,1.7,0.9,2.6,1.4
				C274.7,39.6,274.7,39.9,274.7,40.2z"/>
		</g>
	</g>
	<path d="M82.2,92.4c-0.7-1.4-2.1-1.6-2.7-0.3c-1.8,3.7-3.4,7.5-5.1,11.3c0.2,0.2,0.4,0.3,0.5,0.5c0.5-0.4,1.4-0.8,1.6-1.3
		c0.5-1.6,1.6-1.8,3-1.7c0.9,0.1,1.8,0.1,2.7,0c1.4-0.1,2.3,0.3,2.8,1.7c0.2,0.5,1,0.9,1.5,1.3c0.2-0.2,0.3-0.4,0.5-0.6
		C85.5,99.5,83.9,95.9,82.2,92.4z M78.1,99.2c0.9-2.1,1.7-4,2.7-6.3c1,2.3,1.8,4.1,2.7,6.3C81.6,99.2,80,99.2,78.1,99.2z"/>
	<path d="M101.7,99.2c0.7-0.4,1.4-0.5,1.6-1c0.6-1.3,1.5-2.8,1.2-4c-0.2-1.1-1.6-2.5-2.8-2.8c-2.1-0.4-4.4-0.1-6.9-0.1
		c0,3.8,0,7.3,0,10.9c0,0.5,0.6,1,0.9,1.5c0.2-0.1,0.4-0.2,0.6-0.3c0.1-1.4,0.2-2.8,0.3-4.1c2-0.6,3.1,0.2,4.3,1.5
		c1,1.1,1.6,3.1,4.2,2.5C103.9,101.8,102.8,100.5,101.7,99.2z M96.8,98.3c0-2.4,0-3.9,0-5.6c2.1,0.2,4.3-0.9,5.9,1.1
		c0.4,0.6,0.4,2.3,0.2,2.4C101,97.1,99.1,97.6,96.8,98.3z"/>
	<path d="M152.6,103.7c-0.5-0.4-1.4-0.6-1.5-1.1c-0.6-1.8-1.8-2-3.3-1.8c-0.8,0.1-1.7,0.1-2.5,0c-1.3-0.1-2.1,0.2-2.6,1.5
		c-0.2,0.6-1,1-1.6,1.5c-0.2-0.2-0.4-0.4-0.5-0.5c1.6-3.7,3.2-7.4,5-11.1c0.6-1.3,2-1.2,2.7,0.2c1.7,3.6,3.3,7.3,4.9,10.9
		C152.9,103.3,152.8,103.5,152.6,103.7z M146.8,93c-1,2.3-1.8,4.1-2.7,6.1c2,0,3.6,0,5.4,0C148.6,97.2,147.8,95.3,146.8,93z"/>
</g>
</svg>
