<?xml version="1.0" encoding="utf-8"?>
<!-- Generator: Adobe Illustrator 22.1.0, SVG Export Plug-In . SVG Version: 6.00 Build 0)  -->
<svg version="1.1" id="Capa_1" xmlns="http://www.w3.org/2000/svg" xmlns:xlink="http://www.w3.org/1999/xlink" x="0px" y="0px"
	 viewBox="0 0 77 76" style="enable-background:new 0 0 77 76;" xml:space="preserve">
<style type="text/css">
	.st0{fill:none;stroke:#cccccc;stroke-width:1.971;stroke-miterlimit:10;}
</style>
<path class="st0" d="M24.3,6.6c-2.5-2.6-6.6-2.7-9.1-0.2l-1.8,1.8c-2.6,2.6-5.1,7.6-5.7,11.1c0,0-2.3,14,17.6,32.9
	s33.1,17.4,33.1,17.4c3.6-0.4,8.6-2.8,11.2-5.4l1.7-1.7c2.6-2.6,2.6-6.7,0-9.3l-7.4-7.4c-2.5-2.6-6.8-2.6-9.4-0.1l0,0
	c-2.6,2.5-7.4,3.4-10.7,1.9c0,0-3.1-1.4-7.8-6.1S29.7,34,29.7,34c-1.7-3.2-1-7.9,1.6-10.4s2.6-6.8,0.1-9.4L24.3,6.6z"/>
</svg>
